<?xml version="1.0" encoding="UTF-8"?>
<svg xmlns="http://www.w3.org/2000/svg" xmlns:xlink="http://www.w3.org/1999/xlink"
     width="1500" height="1000" viewBox="0 0 1500 1000">
<defs>
<marker markerWidth="4.0" markerHeight="4.0" viewBox="-0.1 -0.5 1.0 1.0" orient="auto" id="d0">
<path d="M-0.1,-0.5 L-0.1,0.5 L0.9,0 Z" fill="black" />
</marker>
</defs>
<rect x="0" y="0" width="1500" height="1000" fill="#FFFFFF" />
<use xlink:href="#d0" />
<rect x="450" y="750" width="600" height="100" fill="#F1F3F5" stroke="#000000" />
<text x="750.0" y="807.0" font-size="20" valign="middle" font-weight="normal" text-anchor="middle" dominant-baseline="central">How are you? I am </text>
<rect x="500" y="450" width="500" height="150" fill="#DDE7FF" stroke="#000000" />
<text x="750.0" y="532.0" font-size="28" valign="middle" font-weight="bold" text-anchor="middle" dominant-baseline="central">Large Language Model</text>
<path d="M750.0,750 L750.0,610" stroke="black" stroke-width="3" fill="none" marker-end="url(#d0)" />
<rect x="400" y="100" width="200" height="100" fill="#FFF6EE" stroke="#000000" />
<text x="500.0" y="157.0" font-size="20" valign="middle" font-weight="normal" text-anchor="middle" dominant-baseline="central">fine</text>
<rect x="650" y="100" width="200" height="100" fill="#FFF6EE" stroke="#000000" />
<text x="750.0" y="157.0" font-size="20" valign="middle" font-weight="normal" text-anchor="middle" dominant-baseline="central">good</text>
<rect x="900" y="100" width="200" height="100" fill="#FFF6EE" stroke="#000000" />
<text x="1000.0" y="157.0" font-size="20" valign="middle" font-weight="normal" text-anchor="middle" dominant-baseline="central">bad</text>
<path d="M750.0,450 L500.0,210" stroke="black" stroke-width="3" fill="none" marker-end="url(#d0)" />
<path d="M750.0,450 L750.0,210" stroke="black" stroke-width="3" fill="none" marker-end="url(#d0)" />
<path d="M750.0,450 L1000.0,210" stroke="black" stroke-width="3" fill="none" marker-end="url(#d0)" />
<rect x="475.0" y="230" width="100" height="40" fill="#3E63DD" stroke="none" rx="20" ry="20" />
<text x="525.0" y="255.0" font-size="16" valign="middle" font-weight="bold" fill="white" text-anchor="middle" dominant-baseline="central">p = 0.7</text>
<rect x="700.0" y="230" width="100" height="40" fill="#3E63DD" stroke="none" rx="20" ry="20" />
<text x="750.0" y="255.0" font-size="16" valign="middle" font-weight="bold" fill="white" text-anchor="middle" dominant-baseline="central">p = 0.2</text>
<rect x="925.0" y="230" width="100" height="40" fill="#3E63DD" stroke="none" rx="20" ry="20" />
<text x="975.0" y="255.0" font-size="16" valign="middle" font-weight="bold" fill="white" text-anchor="middle" dominant-baseline="central">p = 0.1</text>
</svg>