<?xml version="1.0" encoding="UTF-8"?>
<svg xmlns="http://www.w3.org/2000/svg" xmlns:xlink="http://www.w3.org/1999/xlink"
     width="1500" height="1000" viewBox="0 0 1500 1000">
<defs>
<marker markerWidth="4.0" markerHeight="4.0" viewBox="-0.1 -0.5 1.0 1.0" orient="auto" id="d0">
<path d="M-0.1,-0.5 L-0.1,0.5 L0.9,0 Z" fill="black" />
</marker>
</defs>
<rect x="0" y="0" width="1500" height="1000" fill="#FFFFFF" />
<use xlink:href="#d0" />
<rect x="450" y="717" width="600" height="100" fill="#F1F3F5" stroke="#000000" />
<text x="750.0" y="774.0" font-size="20" valign="middle" font-weight="normal" text-anchor="middle" dominant-baseline="central">Hello, world</text>
<rect x="550" y="350" width="400" height="150" fill="#DDE7FF" stroke="#000000" />
<text x="750.0" y="432.0" font-size="32" valign="middle" font-weight="bold" text-anchor="middle" dominant-baseline="central">Tokenizer</text>
<rect x="52" y="116" width="216" height="100" fill="#FFF6EE" stroke="#000000" />
<text x="160.0" y="173.0" font-size="20" valign="middle" font-weight="normal" text-anchor="middle" dominant-baseline="central">'Hello'</text>
<rect x="288" y="116" width="216" height="100" fill="#FFF6EE" stroke="#000000" />
<text x="396.0" y="173.0" font-size="20" valign="middle" font-weight="normal" text-anchor="middle" dominant-baseline="central">','</text>
<rect x="524" y="116" width="216" height="100" fill="#FFF6EE" stroke="#000000" />
<text x="632.0" y="173.0" font-size="20" valign="middle" font-weight="normal" text-anchor="middle" dominant-baseline="central">' '</text>
<rect x="760" y="116" width="216" height="100" fill="#FFF6EE" stroke="#000000" />
<text x="868.0" y="173.0" font-size="20" valign="middle" font-weight="normal" text-anchor="middle" dominant-baseline="central">'wo'</text>
<rect x="996" y="116" width="216" height="100" fill="#FFF6EE" stroke="#000000" />
<text x="1104.0" y="173.0" font-size="20" valign="middle" font-weight="normal" text-anchor="middle" dominant-baseline="central">'rl'</text>
<rect x="1232" y="116" width="216" height="100" fill="#FFF6EE" stroke="#000000" />
<text x="1340.0" y="173.0" font-size="20" valign="middle" font-weight="normal" text-anchor="middle" dominant-baseline="central">'d'</text>
<path d="M750.0,717 L750.0,510" stroke="black" stroke-width="3" fill="none" marker-end="url(#d0)" />
<path d="M750.0,350 L160.0,226" stroke="black" stroke-width="3" fill="none" marker-end="url(#d0)" />
<path d="M750.0,350 L396.0,226" stroke="black" stroke-width="3" fill="none" marker-end="url(#d0)" />
<path d="M750.0,350 L632.0,226" stroke="black" stroke-width="3" fill="none" marker-end="url(#d0)" />
<path d="M750.0,350 L868.0,226" stroke="black" stroke-width="3" fill="none" marker-end="url(#d0)" />
<path d="M750.0,350 L1104.0,226" stroke="black" stroke-width="3" fill="none" marker-end="url(#d0)" />
<path d="M750.0,350 L1340.0,226" stroke="black" stroke-width="3" fill="none" marker-end="url(#d0)" />
</svg>