<?xml version="1.0" encoding="UTF-8"?>
<svg xmlns="http://www.w3.org/2000/svg" xmlns:xlink="http://www.w3.org/1999/xlink"
     width="1500" height="1000" viewBox="0 0 1500 1000">
<defs>
<marker markerWidth="4.0" markerHeight="4.0" viewBox="-0.1 -0.5 1.0 1.0" orient="auto" id="d0">
<path d="M-0.1,-0.5 L-0.1,0.5 L0.9,0 Z" fill="black" />
</marker>
</defs>
<rect x="0" y="0" width="1500" height="1000" fill="#FFFFFF" />
<use xlink:href="#d0" />
<rect x="150.0" y="440.0" width="200" height="120" fill="#DDE7FF" stroke="#000000" />
<text x="250.0" y="507.0" font-size="16" valign="middle" font-weight="normal" text-anchor="middle"><tspan x="250.0" dy="0.0em">Apple</tspan><tspan x="250.0" dy="1em">(p=0.5)</tspan></text>
<rect x="400.0" y="440.0" width="200" height="120" fill="#DDE7FF" stroke="#000000" />
<text x="500.0" y="507.0" font-size="16" valign="middle" font-weight="normal" text-anchor="middle"><tspan x="500.0" dy="0.0em">Banana</tspan><tspan x="500.0" dy="1em">(p=0.3)</tspan></text>
<rect x="650.0" y="440.0" width="200" height="120" fill="#DDE7FF" stroke="#000000" />
<text x="750.0" y="507.0" font-size="16" valign="middle" font-weight="normal" text-anchor="middle"><tspan x="750.0" dy="0.0em">Cherry</tspan><tspan x="750.0" dy="1em">(p=0.1)</tspan></text>
<rect x="900.0" y="440.0" width="200" height="120" fill="#FFE6E6" stroke="#000000" />
<text x="1000.0" y="507.0" font-size="16" valign="middle" font-weight="normal" text-anchor="middle"><tspan x="1000.0" dy="0.0em">Durian</tspan><tspan x="1000.0" dy="1em">(p=0.05)</tspan></text>
<rect x="1150.0" y="440.0" width="200" height="120" fill="#FFE6E6" stroke="#000000" />
<text x="1250.0" y="507.0" font-size="16" valign="middle" font-weight="normal" text-anchor="middle"><tspan x="1250.0" dy="0.0em">Elderberry</tspan><tspan x="1250.0" dy="1em">(p=0.05)</tspan></text>
<path d="M875.0,390.0 L875.0,610.0" stroke="red" stroke-width="3" stroke-dasharray="10,5" />
<text x="500.0" y="360.0" font-size="18" fill="#0066CC" font-weight="bold" text-anchor="middle" dominant-baseline="central">Included in top-p sampling (p=0.9)</text>
<text x="1125.0" y="360.0" font-size="18" fill="#CC0000" font-weight="bold" text-anchor="middle" dominant-baseline="central">Excluded from sampling</text>
<text x="750.0" y="100" font-size="24" font-weight="bold" text-anchor="middle" dominant-baseline="central">Top-P Sampling with p=0.9</text>
<text x="750.0" y="660.0" font-size="16" fill="#666666" text-anchor="middle" dominant-baseline="central">Cumulative probability: 0.5 + 0.3 + 0.1 = 0.9 ≥ p</text>
</svg>